<svg width="16" height="16" viewBox="0 0 16 16" fill="none" xmlns="http://www.w3.org/2000/svg">
<g clip-path="url(#clip0_4_6)">
<path d="M1.25224 6.27816L7.27835 0.252052C7.43978 0.0906631 7.65871 0 7.88698 0C8.11526 0 8.33418 0.0906631 8.49562 0.252052L14.5217 6.27816C14.6832 6.43957 14.7739 6.6585 14.774 6.8868V15.1391C14.774 15.3674 14.6833 15.5864 14.5218 15.7479C14.3604 15.9093 14.1414 16 13.9131 16H9.60873V9.97389H6.16524V16H1.86087C1.63256 16 1.41359 15.9093 1.25214 15.7479C1.0907 15.5864 1 15.3674 1 15.1391V6.8868C1.00005 6.6585 1.09078 6.43957 1.25224 6.27816V6.27816Z" fill="white"/>
</g>
<defs>
<clipPath id="clip0_4_6">
<rect width="16" height="16" fill="white"/>
</clipPath>
</defs>
</svg>
