<svg width="16" height="16" viewBox="0 0 16 16" fill="none" xmlns="http://www.w3.org/2000/svg">
<path d="M15.6129 4.08025C15.3646 3.50544 15.0067 2.98455 14.5591 2.54675C14.1111 2.10763 13.583 1.75868 13.0033 1.51885C12.4023 1.26918 11.7577 1.14138 11.1068 1.14288C10.1938 1.14288 9.30292 1.39291 8.52875 1.86519C8.34355 1.97816 8.1676 2.10225 8.00092 2.23745C7.83423 2.10225 7.65828 1.97816 7.47308 1.86519C6.69892 1.39291 5.80807 1.14288 4.895 1.14288C4.23752 1.14288 3.60041 1.26882 2.99849 1.51885C2.41694 1.75962 1.89281 2.10595 1.44276 2.54675C0.994552 2.98406 0.636513 3.50507 0.388933 4.08025C0.131497 4.67847 0 5.31373 0 5.96751C0 6.58425 0.12594 7.22691 0.375969 7.88069C0.585252 8.42705 0.885287 8.99378 1.26866 9.56607C1.87614 10.4717 2.71142 11.4163 3.74858 12.3738C5.46729 13.961 7.16934 15.0574 7.24157 15.1019L7.68051 15.3834C7.87498 15.5075 8.12501 15.5075 8.31947 15.3834L8.75841 15.1019C8.83064 15.0556 10.5308 13.961 12.2514 12.3738C13.2886 11.4163 14.1238 10.4717 14.7313 9.56607C15.1147 8.99378 15.4166 8.42705 15.624 7.88069C15.874 7.22691 16 6.58425 16 5.96751C16.0018 5.31373 15.8703 4.67847 15.6129 4.08025V4.08025Z" fill="white"/>
</svg>
