<svg width="16" height="16" viewBox="0 0 16 16" fill="none" xmlns="http://www.w3.org/2000/svg">
<path d="M6.24992 14.7511C6.57087 14.7515 6.88187 14.6396 7.12902 14.4348L7.12912 14.4348C7.26835 14.3193 7.38344 14.1776 7.4678 14.0176C7.55216 13.8576 7.60413 13.6826 7.62073 13.5025C7.63734 13.3224 7.61825 13.1408 7.56456 12.9681C7.51088 12.7954 7.42365 12.635 7.30787 12.496L4.81439 9.5011H14.125C14.4897 9.5011 14.8394 9.35623 15.0973 9.09837C15.3551 8.8405 15.5 8.49077 15.5 8.1261C15.5 7.76142 15.3551 7.41169 15.0973 7.15382C14.8394 6.89596 14.4897 6.7511 14.125 6.7511H4.81439L7.30801 3.75601L7.30827 3.7557C7.54155 3.47503 7.65379 3.11318 7.62028 2.74976C7.58677 2.38634 7.41027 2.05111 7.1296 1.81783C6.84893 1.58454 6.48708 1.47231 6.12366 1.50581C5.76033 1.53931 5.42518 1.71574 5.1919 1.99629C5.19184 1.99636 5.19179 1.99643 5.19173 1.9965L0.817139 7.246L0.804208 7.26152L0.792571 7.27803C0.749166 7.33961 0.710334 7.40429 0.67639 7.47154L0.650526 7.49002L0.596265 7.62728C0.533941 7.78493 0.501309 7.95276 0.500015 8.12228L0.499956 8.12228L0.500015 8.12991C0.501096 8.2716 0.524068 8.41209 0.567969 8.54645C0.574532 8.59053 0.587077 8.64409 0.610827 8.69838C0.641942 8.7695 0.6835 8.82573 0.725038 8.86963C0.746125 8.90536 0.768653 8.94023 0.792571 8.97416L0.804208 8.99067L0.817139 9.00619L5.19206 14.2561C5.32134 14.4113 5.48323 14.5361 5.66623 14.6217C5.84895 14.7071 6.04822 14.7513 6.24992 14.7511ZM6.24992 14.7511C6.24962 14.7511 6.24932 14.7511 6.24902 14.7511L6.25 14.2511L6.25081 14.7511C6.25051 14.7511 6.25022 14.7511 6.24992 14.7511ZM0.6225 7.69735C0.6225 7.71281 0.6215 7.70948 0.6225 7.69426V7.69735Z" fill="white" stroke="white"/>
</svg>
