<svg width="16" height="16" viewBox="0 0 16 16" fill="none" xmlns="http://www.w3.org/2000/svg">
<g clip-path="url(#clip0_35_2)">
<path fill-rule="evenodd" clip-rule="evenodd" d="M7.18284 1.76557C9.88259 -0.609715 12.7508 -0.444249 14.5983 1.40111C16.1786 2.97986 16.5264 5.30423 15.1064 7.63111L10.9958 8.99986H14.0514C13.9664 9.09127 13.9366 9.12541 13.906 9.15885C13.825 9.24751 13.7385 9.33126 12.6042 10.4642L7.99265 11.9999H11.0611C8.7189 14.2845 4.98202 14.2077 3.34765 13.7167L1.28202 15.7802C0.988899 16.073 0.513274 16.073 0.220149 15.7802C-0.0729761 15.4874 -0.0729761 15.0124 0.220149 14.7195L4.94461 10H5.71429C6.50326 10 7.14286 9.36041 7.14286 8.57143C7.14286 7.78245 7.78245 7.14286 8.57143 7.14286C9.36041 7.14286 10 6.50326 10 5.71429V4.28571C10 3.49674 9.36041 2.85714 8.57143 2.85714C7.89854 2.85714 7.33431 2.39192 7.18284 1.76557ZM5.71427 3.2043C5.71428 3.2043 5.71428 3.20429 5.71429 3.20429V4.28571L5.71428 4.28571L5.71427 4.28571V3.2043ZM2.43194 7.55454C1.97843 8.93367 1.92185 10.3705 2.04609 11.4811L3.66868 9.86024C3.18862 9.62999 2.85714 9.13942 2.85714 8.57143C2.85714 8.1735 2.69444 7.81357 2.43194 7.55454ZM5.71429 7.81681L5.71427 7.81683V7.14286C5.71427 6.4525 6.20396 5.87652 6.85494 5.74331C6.20397 5.87652 5.71429 6.45251 5.71429 7.14286V7.81681ZM8.57142 4.28572L8.57142 4.28571L8.57143 4.28572V4.98627C8.57143 4.9877 8.57142 4.98913 8.57142 4.99056V4.28572ZM7.8446 5.71428C8.24469 5.71364 8.56911 5.39026 8.57142 4.99056V5.01373C8.57142 5.40064 8.25777 5.71428 7.87086 5.71428H7.8446ZM7.8446 5.71428C7.8442 5.71428 7.84381 5.71429 7.84341 5.71429H7.14286C7.14285 5.71429 7.14285 5.71428 7.14284 5.71428H7.8446Z" fill="white"/>
<g clip-path="url(#clip1_35_2)">
<rect x="4" y="1" width="2" height="8" rx="1" fill="white"/>
<rect x="1" y="4" width="8" height="2" rx="1" fill="white"/>
</g>
</g>
<defs>
<clipPath id="clip0_35_2">
<rect width="16" height="16" fill="white"/>
</clipPath>
<clipPath id="clip1_35_2">
<rect width="8" height="8" fill="white" transform="translate(1 1)"/>
</clipPath>
</defs>
</svg>
