<svg width="17" height="16" viewBox="0 0 17 16" fill="none" xmlns="http://www.w3.org/2000/svg">
<g clip-path="url(#clip0_16_59)">
<path d="M10.7144 13.7143C10.7144 14.3205 10.4736 14.9019 10.0449 15.3305C9.61623 15.7592 9.03485 16 8.42863 16C7.82242 16 7.24103 15.7592 6.81238 15.3305C6.38372 14.9019 6.1429 14.3205 6.1429 13.7143H10.7144ZM14.143 12.5714H1.68572C1.50385 12.5714 1.32944 12.4992 1.20084 12.3706C1.07224 12.242 0.999996 12.0675 0.999996 11.8857C0.999996 11.7038 1.07224 11.5294 1.20084 11.4008C1.32944 11.2722 1.50385 11.2 1.68572 11.2H2.7143V6.85706C2.7143 4.09132 4.68003 1.78273 7.29148 1.25701C7.27553 1.0981 7.29306 0.93761 7.34295 0.785891C7.39283 0.634172 7.47396 0.494593 7.58111 0.376155C7.68825 0.257718 7.81903 0.163052 7.96501 0.0982631C8.11099 0.033474 8.26892 0 8.42863 0C8.58834 0 8.74628 0.033474 8.89226 0.0982631C9.03824 0.163052 9.16902 0.257718 9.27616 0.376155C9.3833 0.494593 9.46443 0.634172 9.51432 0.785891C9.56421 0.93761 9.58174 1.0981 9.56579 1.25701C10.8574 1.51972 12.0185 2.22065 12.8526 3.24116C13.6867 4.26166 14.1425 5.53904 14.143 6.85706V11.2H15.1716C15.3534 11.2 15.5278 11.2722 15.6564 11.4008C15.785 11.5294 15.8573 11.7038 15.8573 11.8857C15.8573 12.0675 15.785 12.242 15.6564 12.3706C15.5278 12.4992 15.3534 12.5714 15.1716 12.5714H14.143Z" fill="white"/>
</g>
<defs>
<clipPath id="clip0_16_59">
<rect width="16" height="16" fill="white" transform="translate(0.333328)"/>
</clipPath>
</defs>
</svg>
