<svg width="16" height="16" viewBox="0 0 16 16" fill="none" xmlns="http://www.w3.org/2000/svg">
<g clip-path="url(#clip0_19_6)">
<path d="M8 9.71429C8.53043 9.71429 9.03914 9.50358 9.41421 9.12851C9.78929 8.75343 10 8.24473 10 7.71429C10 7.18386 9.78929 6.67515 9.41421 6.30008C9.03914 5.92501 8.53043 5.71429 8 5.71429C7.46957 5.71429 6.96086 5.92501 6.58579 6.30008C6.21071 6.67515 6 7.18386 6 7.71429C6 8.24473 6.21071 8.75343 6.58579 9.12851C6.96086 9.50358 7.46957 9.71429 8 9.71429ZM2 9.71429C2.53043 9.71429 3.03914 9.50358 3.41421 9.12851C3.78929 8.75343 4 8.24473 4 7.71429C4 7.18386 3.78929 6.67515 3.41421 6.30008C3.03914 5.92501 2.53043 5.71429 2 5.71429C1.46957 5.71429 0.960859 5.92501 0.585786 6.30008C0.210714 6.67515 0 7.18386 0 7.71429C0 8.24473 0.210714 8.75343 0.585786 9.12851C0.960859 9.50358 1.46957 9.71429 2 9.71429V9.71429ZM14 9.71429C14.5304 9.71429 15.0391 9.50358 15.4142 9.12851C15.7893 8.75343 16 8.24473 16 7.71429C16 7.18386 15.7893 6.67515 15.4142 6.30008C15.0391 5.92501 14.5304 5.71429 14 5.71429C13.4696 5.71429 12.9609 5.92501 12.5858 6.30008C12.2107 6.67515 12 7.18386 12 7.71429C12 8.24473 12.2107 8.75343 12.5858 9.12851C12.9609 9.50358 13.4696 9.71429 14 9.71429V9.71429Z" fill="white"/>
</g>
<defs>
<clipPath id="clip0_19_6">
<rect width="16" height="16" fill="white"/>
</clipPath>
</defs>
</svg>
