<svg width="17" height="16" viewBox="0 0 17 16" fill="none" xmlns="http://www.w3.org/2000/svg">
<g clip-path="url(#clip0_16_57)">
<path d="M11.7436 6.76923C11.7436 5.58333 11.3221 4.56891 10.4792 3.72596C9.63622 2.88301 8.62179 2.46154 7.4359 2.46154C6.25 2.46154 5.23557 2.88301 4.39263 3.72596C3.54968 4.56891 3.1282 5.58333 3.1282 6.76923C3.1282 7.95513 3.54968 8.96955 4.39263 9.8125C5.23557 10.6554 6.25 11.0769 7.4359 11.0769C8.62179 11.0769 9.63622 10.6554 10.4792 9.8125C11.3221 8.96955 11.7436 7.95513 11.7436 6.76923ZM16.6667 14.7692C16.6667 15.1026 16.5449 15.391 16.3013 15.6346C16.0577 15.8782 15.7692 16 15.4359 16C15.0897 16 14.8013 15.8782 14.5705 15.6346L11.2724 12.3462C10.125 13.141 8.84615 13.5385 7.4359 13.5385C6.51923 13.5385 5.64263 13.3606 4.80609 13.0048C3.96955 12.649 3.24839 12.1683 2.64263 11.5625C2.03686 10.9567 1.55609 10.2356 1.20032 9.39904C0.844549 8.5625 0.666664 7.6859 0.666664 6.76923C0.666664 5.85256 0.844549 4.97596 1.20032 4.13942C1.55609 3.30288 2.03686 2.58173 2.64263 1.97596C3.24839 1.37019 3.96955 0.889423 4.80609 0.533654C5.64263 0.177885 6.51923 0 7.4359 0C8.35256 0 9.22916 0.177885 10.0657 0.533654C10.9022 0.889423 11.6234 1.37019 12.2292 1.97596C12.8349 2.58173 13.3157 3.30288 13.6715 4.13942C14.0272 4.97596 14.2051 5.85256 14.2051 6.76923C14.2051 8.17949 13.8077 9.45833 13.0128 10.6058L16.3109 13.9038C16.5481 14.141 16.6667 14.4295 16.6667 14.7692Z" fill="white"/>
</g>
<defs>
<clipPath id="clip0_16_57">
<rect width="16" height="16" fill="white" transform="translate(0.666664)"/>
</clipPath>
</defs>
</svg>
