<svg width="16" height="16" viewBox="0 0 16 16" fill="none" xmlns="http://www.w3.org/2000/svg">
<g clip-path="url(#clip0_4_14)">
<path d="M14.1408 13.1028C14.9613 12.1155 15.532 10.9451 15.8046 9.69065C16.0772 8.43618 16.0436 7.13451 15.7067 5.89576C15.3698 4.65701 14.7396 3.51762 13.8692 2.57397C12.9988 1.63033 11.914 0.910196 10.7064 0.474488C9.4989 0.0387795 8.20419 -0.099683 6.93181 0.0708131C5.65944 0.241309 4.44685 0.715748 3.39662 1.454C2.34639 2.19224 1.48941 3.17258 0.898186 4.31207C0.30696 5.45157 -0.00112136 6.7167 3.0669e-06 8.00044C0.000434549 9.86663 0.658073 11.6731 1.85752 13.1028L1.84609 13.1125C1.88609 13.1605 1.9318 13.2016 1.97294 13.249C2.02436 13.3079 2.07978 13.3633 2.13292 13.4204C2.2929 13.5941 2.45746 13.761 2.63001 13.9175C2.68258 13.9655 2.73685 14.0101 2.78999 14.0558C2.97283 14.2135 3.16081 14.3632 3.35565 14.5026C3.38079 14.5197 3.40364 14.542 3.42878 14.5597V14.5529C4.76698 15.4946 6.36339 16 7.99972 16C9.63606 16 11.2325 15.4946 12.5707 14.5529V14.5597C12.5958 14.542 12.6181 14.5197 12.6438 14.5026C12.8381 14.3626 13.0266 14.2135 13.2095 14.0558C13.2626 14.0101 13.3169 13.9649 13.3694 13.9175C13.542 13.7604 13.7065 13.5941 13.8665 13.4204C13.9197 13.3633 13.9745 13.3079 14.0265 13.249C14.0671 13.2016 14.1134 13.1605 14.1534 13.1119L14.1408 13.1028ZM7.99915 3.4295C8.50768 3.4295 9.00479 3.58029 9.42761 3.86281C9.85044 4.14534 10.18 4.5469 10.3746 5.01671C10.5692 5.48653 10.6201 6.0035 10.5209 6.50226C10.4217 7.00101 10.1768 7.45915 9.81723 7.81873C9.45765 8.17832 8.99952 8.42319 8.50076 8.5224C8.00201 8.62161 7.48503 8.57069 7.01521 8.37609C6.5454 8.18148 6.14384 7.85193 5.86132 7.42911C5.57879 7.00628 5.428 6.50918 5.428 6.00065C5.428 5.31874 5.69889 4.66476 6.18107 4.18257C6.66326 3.70039 7.31724 3.4295 7.99915 3.4295V3.4295ZM3.43221 13.1028C3.44212 12.3525 3.747 11.6364 4.2809 11.1092C4.81479 10.5821 5.53476 10.2863 6.28505 10.2859H9.71326C10.4635 10.2863 11.1835 10.5821 11.7174 11.1092C12.2513 11.6364 12.5562 12.3525 12.5661 13.1028C11.313 14.232 9.68598 14.8569 7.99915 14.8569C6.31233 14.8569 4.68531 14.232 3.43221 13.1028V13.1028Z" fill="white"/>
</g>
<defs>
<clipPath id="clip0_4_14">
<rect width="16" height="16" fill="white"/>
</clipPath>
</defs>
</svg>
